# xmcd
#
# Track frame offsets: 
#        150
#        12575
#        20716
#        29915
#        38318
#        51910
#        61496
#        70739
#        84797
#        99468
#        109028
#        121084
#        132645
#        139386
#        147843
#        158049
#        168902
#        178648
#        192594
#        201281
#        209928
#        219280
#        228133
#        237036
#        245459
#        256740
#        265977
#        276564
#        287935
#        297508
#        308440
#        324194
#
# Disc length: 4448 seconds
#
# Revision: 0
# Processed by: cddbd v1.4PL0 Copyright (c) Steve Scherf et al.
# Submitted via: ExactAudioCopy v0.90b4
#
DISCID=e2115e20
DTITLE=Elvis Presley - Elvis 
DYEAR=1900
DGENRE=Rock and Roll
TTITLE0=Love Me Tender
TTITLE1=(Let Me Be Your) Teddy Bear
TTITLE2=Wooden Heart (Muﬂ i denn zum St‰dtele hinaus)
TTITLE3=Wild In The Country
TTITLE4=Can't Help Falling In Love
TTITLE5=Return To Sender
TTITLE6=Bossa Nova Baby
TTITLE7=Are You Lonesome Tonight?
TTITLE8=It's Now Or Never (O Sole Mio)
TTITLE9=True Love
TTITLE10=Love Me
TTITLE11=I Will Be Home Again 
TTITLE12=(Let's Have A) Party
TTITLE13=(You're So Square) Baby, I don't Care
TTITLE14=Hound Dog
TTITLE15=Jailhouse Rock
TTITLE16=Lawdy Miss Clawdy
TTITLE17=What'd I Say
TTITLE18=Rip It Up
TTITLE19=Hard Headed Woman
TTITLE20=Blue Suede Shoes
TTITLE21=ReadyTeddy
TTITLE22=All Shook Up
TTITLE23=Long Tall Sally
TTITLE24=(Now And Then There's) A Fool Such As I
TTITLE25=I Need Your Love Tonight
TTITLE26=(You're The Devil) In Disguise
TTITLE27=One Night
TTITLE28=Heartbreak Hotel
TTITLE29=Crying In The Chapel
TTITLE30=Fever
TTITLE31=King Creole
EXTD=
EXTT0=
EXTT1=
EXTT2=
EXTT3=
EXTT4=
EXTT5=
EXTT6=
EXTT7=
EXTT8=
EXTT9=
EXTT10=
EXTT11=
EXTT12=
EXTT13=
EXTT14=
EXTT15=
EXTT16=
EXTT17=
EXTT18=
EXTT19=
EXTT20=
EXTT21=
EXTT22=
EXTT23=
EXTT24=
EXTT25=
EXTT26=
EXTT27=
EXTT28=
EXTT29=
EXTT30=
EXTT31=
PLAYORDER=
